PathFileType	4	(X/Y/Z)	D:\telocate\uwb01-Unnamed.trc
DataRate	CameraRate	NumFrames	NumMarkers	Units	OrigDataRate	OrigDataStartFrame	OrigNumFrames
100.00	100.00	      194	0	mm	100.00	4709	      7534
Frame#	Time	
		

4709	47.080	1996.40845	-1301.33789	1197.38416	
4710	47.090	1996.15686	-1294.95532	1197.72375	
4711	47.100	1994.52356	-1289.58179	1197.27637	
4712	47.110	1992.82813	-1283.78979	1197.20471	
4713	47.120	1991.42627	-1278.07776	1197.31677	
4714	47.130	1990.61670	-1272.63599	1197.61182	
4715	47.140	1988.80212	-1267.25171	1197.19250	
4716	47.150	1987.20447	-1262.20166	1197.65417	
4717	47.160	1985.61987	-1257.84741	1197.70532	
4718	47.170	1984.24280	-1253.13477	1197.69312	
4719	47.180	1983.33936	-1248.84546	1198.17505	
4720	47.190	1980.57996	-1245.01135	1198.28638	
4721	47.200	1979.16223	-1240.72693	1198.65320	
4722	47.210	1980.34668	-1235.32996	1198.32520	
4723	47.220	1979.95557	-1230.84387	1197.79675	
4724	47.230	1979.76892	-1225.72437	1198.15466	
4725	47.240	1979.40588	-1220.58020	1198.12915	
4726	47.250	1979.30750	-1215.47900	1198.13037	
4727	47.260	1979.56750	-1209.54321	1197.87854	
4728	47.270	1979.68652	-1204.02246	1197.58862	
4729	47.280	1979.76538	-1198.89087	1197.70654	
4730	47.290	1980.31482	-1193.53333	1197.76648	
4731	47.300	1980.08484	-1187.98486	1197.60974	
4732	47.310	1980.63831	-1183.08545	1197.45691	
4733	47.320	1980.77148	-1178.00500	1197.57434	
4734	47.330	1981.12317	-1172.89075	1197.30286	
4735	47.340	1980.96045	-1167.66858	1196.99524	
4736	47.350	1981.31018	-1162.32117	1197.29590	
4737	47.360	1981.56006	-1157.04773	1196.89941	
4738	47.370	1981.88074	-1151.68701	1196.93079	
4739	47.380	1982.44312	-1146.72034	1196.96753	
4740	47.390	1982.84973	-1141.30750	1196.64844	
4741	47.400	1983.62524	-1136.41394	1196.62317	
4742	47.410	1984.01990	-1130.87219	1196.26123	
4743	47.420	1984.45325	-1125.90674	1196.28442	
4744	47.430	1985.18970	-1120.73230	1196.24670	
4745	47.440	1986.09399	-1115.57239	1196.00610	
4746	47.450	1986.75708	-1110.58301	1195.96741	
4747	47.460	1987.26184	-1105.62341	1195.66760	
4748	47.470	1988.35620	-1100.70886	1195.31775	
4749	47.480	1989.09460	-1095.11072	1195.64209	
4750	47.490	1989.72864	-1089.98645	1195.15881	
4751	47.500	1990.66797	-1084.58789	1194.81042	
4752	47.510	1991.17896	-1079.13770	1194.51135	
4753	47.520	1992.30688	-1074.39197	1194.53918	
4754	47.530	1992.92737	-1068.96509	1194.29358	
4755	47.540	1993.28052	-1064.18286	1193.77258	
4756	47.550	1993.91333	-1058.88464	1193.86511	
4757	47.560	1994.55762	-1053.60596	1193.58630	
4758	47.570	1995.07776	-1048.59033	1193.30774	
4759	47.580	1995.47046	-1043.11133	1192.90271	
4760	47.590	1996.36584	-1038.30237	1192.79199	
4761	47.600	1996.83911	-1032.13123	1192.78027	
4762	47.610	1997.55078	-1026.76477	1192.30396	
4763	47.620	1997.92542	-1021.23053	1191.93347	
4764	47.630	1998.39270	-1015.80035	1191.82520	
4765	47.640	1998.95288	-1010.43420	1190.98267	
4766	47.650	1999.62085	-1004.63007	1190.50452	
4767	47.660	2000.68530	-999.11633	1190.32947	
4768	47.670	2001.76233	-993.30078	1189.97095	
4769	47.680	2002.42200	-987.74780	1189.64844	
4770	47.690	2002.46082	-982.31445	1189.21191	
4771	47.700	2003.18420	-977.21313	1189.14221	
4772	47.710	2003.50269	-971.62964	1189.11035	
4773	47.720	2004.00769	-966.86798	1189.16101	
4774	47.730	2004.01794	-962.19879	1189.05310	
4775	47.740	2004.21155	-957.24426	1188.90906	
4776	47.750	2003.24951	-952.53931	1188.71729	
4777	47.760	2003.55310	-947.78656	1188.27917	
4778	47.770	2004.11279	-942.17664	1188.27246	
4779	47.780	2004.67395	-936.81787	1187.90039	
4780	47.790	2005.48193	-932.28119	1187.71375	
4781	47.800	2005.32397	-927.14691	1187.32715	
4782	47.810	2007.63501	-922.13202	1187.54126	
4783	47.820	2007.68140	-917.73846	1187.10425	
4784	47.830	2007.53516	-912.97461	1187.50854	
4785	47.840	2007.79370	-908.64673	1187.38318	
4786	47.850	2007.72778	-904.40283	1187.38623	
4787	47.860	2007.36133	-899.90375	1187.36829	
4788	47.870	2007.02808	-895.70569	1187.71045	
4789	47.880	2006.48706	-891.05261	1187.54919	
4790	47.890	2006.42822	-886.34766	1187.44507	
4791	47.900	2005.98938	-881.78510	1187.23865	
4792	47.910	2005.14514	-877.42902	1187.30701	
4793	47.920	2004.66943	-873.17706	1187.15698	
4794	47.930	2003.85168	-868.93109	1186.97925	
4795	47.940	2003.48132	-864.47278	1187.11426	
4796	47.950	2001.10181	-860.66174	1186.74060	
4797	47.960	2001.78149	-856.00684	1186.89429	
4798	47.970	1999.34583	-852.31628	1187.25623	
4799	47.980	1998.62097	-848.45020	1187.44226	
4800	47.990	1997.50647	-844.57275	1187.43896	
4801	48.000	1997.08301	-840.72723	1187.54590	
4802	48.010	1995.91724	-837.11871	1187.71729	
4803	48.020	1994.11780	-833.39026	1187.72510	
4804	48.030	1992.63062	-829.37622	1187.94336	
4805	48.040	1991.89124	-825.53040	1187.96094	
4806	48.050	1990.20703	-821.27991	1188.02722	
4807	48.060	1990.80164	-817.51874	1188.67761	
4808	48.070	1988.96069	-813.74945	1188.82178	
4809	48.080	1988.34546	-809.54987	1188.86523	
4810	48.090	1986.85632	-805.67798	1188.68042	
4811	48.100	1985.62488	-802.06274	1188.88306	
4812	48.110	1984.32556	-798.06360	1189.15295	
4813	48.120	1983.41980	-794.30371	1189.51990	
4814	48.130	1982.33459	-790.48181	1189.65161	
4815	48.140	1980.80237	-786.87573	1190.08862	
4816	48.150	1980.42981	-783.25000	1190.47864	
4817	48.160	1978.92847	-779.46613	1191.00928	
4818	48.170	1978.28650	-775.85693	1191.05518	
4819	48.180	1976.01135	-772.56580	1191.07495	
4820	48.190	1976.68005	-768.56146	1191.27869	
4821	48.200	1976.13245	-764.88623	1192.09717	
4822	48.210	1974.07214	-761.79688	1192.33167	
4823	48.220	1973.66809	-757.53284	1192.58337	
4824	48.230	1973.72852	-753.96045	1192.71899	
4825	48.240	1973.55347	-750.09424	1192.77014	
4826	48.250	1973.67847	-745.58710	1192.69629	
4827	48.260	1973.19617	-741.53729	1192.75183	
4828	48.270	1972.76465	-737.06012	1192.83704	
4829	48.280	1972.42578	-732.38226	1192.74731	
4830	48.290	1972.02148	-728.08655	1192.90918	
4831	48.300	1970.90540	-724.33594	1192.57495	
4832	48.310	1970.45056	-719.25269	1192.65979	
4833	48.320	1968.78027	-715.04071	1192.76257	
4834	48.330	1968.39917	-710.62524	1192.61646	
4835	48.340	1967.17322	-705.58569	1192.52771	
4836	48.350	1965.58069	-701.00519	1192.42859	
4837	48.360	1964.49756	-695.53931	1192.52478	
4838	48.370	1962.90759	-690.82709	1192.48328	
4839	48.380	1961.67969	-686.35675	1192.23938	
4840	48.390	1960.24060	-681.35364	1192.21960	
4841	48.400	1958.81824	-676.87189	1191.99292	
4842	48.410	1956.73511	-672.58563	1191.62793	
4843	48.420	1955.83972	-667.95728	1192.04663	
4844	48.430	1954.07898	-663.56799	1191.94153	
4845	48.440	1952.07336	-659.28143	1191.82043	
4846	48.450	1950.04590	-654.78784	1192.09729	
4847	48.460	1948.52502	-650.37848	1191.76416	
4848	48.470	1946.87488	-645.53235	1191.63391	
4849	48.480	1944.63599	-641.25415	1191.81238	
4850	48.490	1943.73010	-636.71918	1191.83179	
4851	48.500	1941.88770	-632.22369	1191.78406	
4852	48.510	1939.57910	-627.91565	1191.49182	
4853	48.520	1937.56409	-623.00854	1191.72668	
4854	48.530	1935.58667	-617.83026	1191.62793	
4855	48.540	1933.84460	-613.22614	1191.54993	
4856	48.550	1931.45654	-608.36072	1191.70886	
4857	48.560	1929.34412	-603.30957	1191.36938	
4858	48.570	1927.46582	-598.19043	1191.05493	
4859	48.580	1925.42249	-593.19086	1190.88232	
4860	48.590	1923.02051	-588.39099	1190.71167	
4861	48.600	1920.98474	-583.15503	1190.50342	
4862	48.610	1918.69690	-578.38062	1190.30518	
4863	48.620	1916.64490	-573.04248	1190.58459	
4864	48.630	1914.54419	-567.77167	1190.31628	
4865	48.640	1912.70911	-562.74170	1189.82080	
4866	48.650	1910.25134	-557.02991	1189.87195	
4867	48.660	1908.35181	-551.90723	1189.52185	
4868	48.670	1906.05884	-547.01434	1189.20251	
4869	48.680	1904.15369	-541.49121	1188.94421	
4870	48.690	1902.16455	-536.54224	1188.60278	
4871	48.700	1899.94226	-531.25952	1188.36304	
4872	48.710	1898.31824	-525.96979	1188.28320	
4873	48.720	1896.95142	-520.45074	1188.26135	
4874	48.730	1894.91455	-515.44049	1187.73438	
4875	48.740	1893.61267	-510.28854	1187.56592	
4876	48.750	1892.29370	-505.58990	1187.31091	
4877	48.760	1891.26477	-501.06665	1187.20081	
4878	48.770	1890.29272	-496.58704	1187.02734	
4879	48.780	1889.48450	-491.74811	1186.80554	
4880	48.790	1888.57495	-486.93033	1186.91504	
4881	48.800	1887.43372	-481.67996	1186.71570	
4882	48.810	1886.97864	-476.56897	1186.77710	
4883	48.820	1886.20251	-471.45154	1186.44238	
4884	48.830	1885.82483	-466.12885	1186.49402	
4885	48.840	1885.57642	-460.66751	1186.33887	
4886	48.850	1885.40027	-454.84891	1185.64941	
4887	48.860	1885.29907	-449.69159	1186.22510	
4888	48.870	1885.31702	-444.24426	1185.94739	
4889	48.880	1885.00452	-439.01566	1185.58679	
4890	48.890	1885.43140	-433.84113	1185.29895	
4891	48.900	1885.35229	-428.69128	1185.62317	
4892	48.910	1885.80725	-423.43207	1185.26013	
4893	48.920	1886.08630	-418.12311	1185.08252	
4894	48.930	1886.24304	-413.25772	1184.97302	
4895	48.940	1886.57568	-407.82266	1184.94275	
4896	48.950	1887.11609	-403.16327	1184.79810	
4897	48.960	1887.78857	-398.76236	1184.71179	
4898	48.970	1887.96179	-394.47507	1184.62927	
4899	48.980	1889.25574	-389.84341	1184.86206	
4900	48.990	1890.28137	-385.51898	1185.10413	
4901	49.000	1891.07202	-381.13718	1185.03699	
4902	49.010	1892.35815	-376.27130	1184.80444	
